<?xml version="1.0" encoding="iso-8859-1"?>
<!-- Generator: Adobe Illustrator 24.0.0, SVG Export Plug-In . SVG Version: 6.00 Build 0)  -->
<svg version="1.1" id="&#x56FE;&#x5C42;_1" xmlns="http://www.w3.org/2000/svg" xmlns:xlink="http://www.w3.org/1999/xlink" x="0px"
	 y="0px" viewBox="0 0 910 146" style="enable-background:new 0 0 910 146;" xml:space="preserve">
<linearGradient id="SVGID_1_" gradientUnits="userSpaceOnUse" x1="686.2432" y1="79.5708" x2="897.1638" y2="79.5708">
	<stop  offset="0" style="stop-color:#FF26ED"/>
	<stop  offset="0.2618" style="stop-color:#A426FF"/>
	<stop  offset="0.6005" style="stop-color:#265CFF"/>
	<stop  offset="1" style="stop-color:#0095FF"/>
</linearGradient>
<path style="fill:url(#SVGID_1_);" d="M786.234,64.369c-2.189,1.675-3.492,4.439-3.904,8.283l6.963,0.697
	c0.133-2.04,0.63-3.497,1.494-4.376c0.861-0.879,2.022-1.318,3.482-1.318c1.477,0,2.632,0.42,3.47,1.256
	c0.838,0.837,1.258,2.035,1.258,3.594c0,1.41-0.483,2.835-1.444,4.279c-0.713,1.043-2.645,3.034-5.796,5.969
	c-3.913,3.632-6.531,6.546-7.86,8.742c-1.324,2.198-2.121,4.523-2.387,6.979h24.501v-6.493h-13.879
	c0.363-0.63,0.842-1.277,1.429-1.94c0.588-0.663,1.987-2.007,4.191-4.03c2.205-2.021,3.73-3.572,4.577-4.652
	c1.277-1.623,2.21-3.179,2.801-4.663c0.586-1.484,0.881-3.045,0.881-4.689c0-2.887-1.03-5.299-3.084-7.24
	c-2.058-1.94-4.885-2.91-8.483-2.91C791.159,61.857,788.424,62.695,786.234,64.369 M822.336,92.503
	c-0.656-0.532-1.199-1.598-1.63-3.197c-0.431-1.6-0.647-4.54-0.647-8.82c0-4.278,0.239-7.319,0.721-9.129
	c0.363-1.392,0.88-2.359,1.542-2.895c0.664-0.539,1.418-0.809,2.263-0.809c0.847,0,1.595,0.27,2.251,0.809
	c0.656,0.537,1.198,1.608,1.63,3.209s0.647,4.539,0.647,8.816c0,4.28-0.24,7.313-0.721,9.104c-0.364,1.393-0.88,2.36-1.542,2.897
	c-0.667,0.54-1.418,0.81-2.264,0.81C823.741,93.297,822.99,93.032,822.336,92.503 M816.329,65.589
	c-2.388,3.015-3.582,7.96-3.582,14.824c0,6.998,1.086,11.861,3.26,14.587c2.169,2.73,5.03,4.093,8.58,4.093
	c3.534,0,6.284-1.243,8.259-3.73c2.389-3.019,3.582-7.975,3.582-14.876c0-6.913-1.184-11.863-3.555-14.847
	c-1.989-2.522-4.75-3.782-8.284-3.782C821.055,61.857,818.304,63.103,816.329,65.589 M846.97,64.369
	c-2.19,1.675-3.491,4.439-3.903,8.283l6.963,0.697c0.132-2.04,0.628-3.497,1.493-4.376c0.861-0.879,2.022-1.318,3.482-1.318
	c1.474,0,2.632,0.42,3.469,1.256c0.839,0.837,1.256,2.035,1.256,3.594c0,1.41-0.481,2.835-1.441,4.279
	c-0.712,1.043-2.645,3.034-5.795,5.969c-3.914,3.632-6.535,6.546-7.861,8.742c-1.327,2.198-2.122,4.523-2.387,6.979h24.498v-6.493
	h-13.876c0.362-0.63,0.839-1.277,1.429-1.94c0.588-0.663,1.985-2.007,4.191-4.03c2.204-2.021,3.73-3.572,4.576-4.652
	c1.277-1.623,2.209-3.179,2.798-4.663c0.589-1.484,0.882-3.045,0.882-4.689c0-2.887-1.027-5.299-3.081-7.24
	c-2.057-1.94-4.884-2.91-8.483-2.91C851.896,61.857,849.159,62.695,846.97,64.369 M883.072,92.503
	c-0.656-0.532-1.199-1.598-1.63-3.197c-0.432-1.6-0.647-4.54-0.647-8.82c0-4.278,0.241-7.319,0.722-9.129
	c0.363-1.392,0.877-2.359,1.541-2.895c0.663-0.539,1.418-0.809,2.264-0.809c0.847,0,1.595,0.27,2.249,0.809
	c0.657,0.537,1.199,1.608,1.63,3.209s0.647,4.539,0.647,8.816c0,4.28-0.241,7.313-0.72,9.104c-0.364,1.393-0.88,2.36-1.543,2.897
	c-0.664,0.54-1.415,0.81-2.262,0.81S883.724,93.032,883.072,92.503 M877.063,65.589c-2.385,3.015-3.581,7.96-3.581,14.824
	c0,6.998,1.087,11.861,3.26,14.587c2.171,2.73,5.032,4.093,8.582,4.093c3.531,0,6.283-1.243,8.257-3.73
	c2.387-3.019,3.582-7.975,3.582-14.876c0-6.913-1.184-11.863-3.555-14.847c-1.992-2.522-4.752-3.782-8.283-3.782
	C881.791,61.857,879.038,63.103,877.063,65.589 M701.877,95.066h16.597v1.1h-16.597V95.066z M701.877,90.573h16.597v0.872h-16.597
	V90.573z M708.571,79.156h4.996c-0.733,0.413-1.512,0.827-2.291,1.237h-2.705L708.571,79.156L708.571,79.156z M698.669,67.787
	h19.072v1.054h-19.072V67.787z M698.669,62.972h19.072v1.009h-19.072V62.972z M692.248,58.892v14.029h29.71
	c-1.192,1.193-2.477,2.293-3.897,3.348v-1.697h-9.489v-1.145h-6.694v1.145h-10.271v4.585h10.271v1.237h-13.664v4.817h10.821
	c-4.081,1.236-8.438,2.245-12.792,2.979c1.01,1.236,2.613,3.805,3.256,5.181c1.971-0.413,3.896-0.917,5.868-1.422v9.033h6.511
	v-0.825h16.597v0.825h6.785V86.539h-14.488c0.964-0.412,1.879-0.871,2.797-1.328h15.544v-4.817h-7.473
	c2.337-1.694,4.446-3.482,6.326-5.501l-3.484-2.063V58.892H692.248z M744.516,82.228h4.264v2.202h-4.264V82.228z M765.238,76.36
	v-0.871h5.044v4.54h-5.089C765.238,78.744,765.238,77.506,765.238,76.36 M744.516,75.168h4.264v2.063h-4.264V75.168z
	 M744.516,68.246h4.264v1.925h-4.264V68.246z M765.238,65.402h5.043v4.265h-5.043V65.402z M748.779,57.975v4.493h-4.264v-4.493
	h-5.961v4.493h-3.438v5.778h3.438v16.185h-3.943v5.776h5.319c-1.284,2.613-3.531,5.318-5.916,7.061
	c1.515,0.871,4.08,2.75,5.319,3.898c2.431-2.201,5.182-5.824,6.878-9.171l-6.144-1.788h11.095l-4.31,2.384
	c1.834,2.156,4.126,5.135,5.09,6.97l3.76-2.2c1.466,0.732,4.079,2.613,5.135,3.713c2.292-3.989,3.438-9.675,3.988-15.131h5.456
	v7.979c0,0.688-0.229,0.916-0.917,0.916c-0.641,0-2.843,0.046-4.539-0.09c0.825,1.65,1.649,4.539,1.834,6.281
	c3.485,0.045,5.916-0.139,7.704-1.193c1.787-1.009,2.336-2.751,2.336-5.821V59.396h-17.696V76.36c0,5.777-0.184,13.297-2.476,18.936
	c-1.146-1.604-2.844-3.529-4.265-5.089h5.089v-5.776h-2.476V68.246h2.98v-5.778h-2.98v-4.493
	C754.875,57.975,748.779,57.975,748.779,57.975z"/>
<path style="fill:#2B2532;" d="M159.06,66.227h7.702v-6.281h-39.431v6.281h8.62v10.179H125.91v6.373h9.446
	c-1.009,4.951-3.531,9.766-9.721,13.479c1.696,1.102,4.264,3.484,5.457,4.998c7.702-4.858,10.407-11.691,11.325-18.478h9.628v18.294
	h7.016V82.779h8.986v-6.373h-8.986V66.227H159.06z M152.045,76.406h-9.216V66.227h9.216V76.406z M207.429,89.106
	c1.284,2.935,2.935,6.832,3.622,9.217l6.144-2.613c-0.826-2.294-2.659-6.054-3.989-8.804L207.429,89.106z M184.001,74.159
	c-1.79-1.146-5.32-2.934-7.521-4.034l-3.805,4.814c2.293,1.329,5.731,3.347,7.336,4.585L184.001,74.159z M179.186,82.091
	c-1.881,5.502-4.356,11.233-6.145,14.856l6.098,3.529c1.972-4.676,3.852-9.765,5.503-14.763L179.186,82.091z M214.765,69.069h-8.023
	c0.55-0.778,1.146-1.65,1.696-2.521l-3.759-0.642h11.14v-5.96h-29.205v12.792c0,7.382-0.413,17.881-5.548,24.896
	c1.604,0.688,4.447,2.477,5.64,3.53c5.501-7.611,6.373-20.173,6.373-28.427v-6.832h7.656c-0.228,0.963-0.596,2.109-0.962,3.163
	h-5.685v17.058h6.741v8.619c0,0.459-0.184,0.596-0.689,0.596c-0.413,0-1.696,0-2.888-0.045c1.101-1.927,2.201-4.127,2.981-6.1
	l-5.87-1.695c-1.008,2.751-2.704,5.959-4.309,8.069c1.467,0.733,3.944,2.2,5.181,3.163c0.504-0.778,1.054-1.695,1.65-2.704
	c0.55,1.559,1.146,3.484,1.33,4.952c2.751,0.046,4.952-0.046,6.739-0.919c1.835-0.87,2.202-2.429,2.202-5.135v-8.802h7.611V69.069
	H214.765z M208.621,81.45h-8.666v-1.696h8.666V81.45z M208.621,75.398h-8.666v-1.651h8.666V75.398z M244.703,79.064
	c1.743-2.521,3.118-5.776,4.218-9.443h8.162c-0.412,2.659-0.917,5.271-1.329,7.151l5.317,1.239c1.01-3.485,2.201-8.758,3.072-13.48
	l-4.494-1.009l-0.962,0.184h-8.299c0.367-1.743,0.642-3.531,0.872-5.366l-6.374-0.916c-0.734,6.968-2.43,13.755-5.501,17.79
	C240.852,76.04,243.557,78.012,244.703,79.064 M254.515,80.854c0.184-1.744,0.229-3.395,0.229-4.814v-2.338h-6.327v2.154
	c0,5.501-0.825,14.396-9.216,20.725c1.561,1.008,3.898,3.116,4.952,4.538c3.76-2.98,6.189-6.465,7.75-9.994
	c1.925,4.263,4.585,7.655,8.436,9.857c0.917-1.742,2.935-4.31,4.356-5.595C259.146,92.775,256.073,87.272,254.515,80.854
	 M241.172,84.842l-4.401,0.597v-3.163h3.852l0.045-5.961h-3.897v-6.099h-5.548l0.596-1.742h9.353v-6.281h-7.381
	c0.275-1.146,0.55-2.246,0.826-3.393l-6.418-1.238c-0.276,1.559-0.598,3.117-0.964,4.63h-6.327v6.281h4.585
	c-0.779,2.522-1.514,4.539-1.926,5.411c-0.871,2.018-1.604,3.164-2.705,3.529c0.688,1.56,1.696,4.402,2.017,5.594
	c0.413-0.457,2.385-0.732,3.898-0.732h4.081v3.988c-4.035,0.505-7.748,0.964-10.637,1.284l1.375,6.739
	c2.75-0.458,5.914-0.963,9.261-1.558v8.253h5.915v-9.262l4.723-0.825L241.172,84.842z M230.857,76.314h-2.063
	c0.688-1.605,1.375-3.302,2.063-5.089V76.314z M300.271,72.6h9.125v-6.511h-9.125v-8.023h-6.739v8.023h-2.477
	c0.46-1.558,0.826-3.117,1.147-4.631l-6.419-1.33c-1.01,5.411-2.935,11.234-5.32,14.717c1.605,0.688,4.494,2.202,5.824,3.165
	c0.871-1.514,1.742-3.348,2.567-5.411h4.677v6.695h-12.012v6.51h12.012v15.177h6.739V85.805h11.417v-6.51H300.27V72.6H300.271z
	 M277.484,57.654c-2.201,6.328-6.005,12.655-9.949,16.644c1.102,1.65,2.889,5.365,3.485,7.015c0.642-0.688,1.329-1.468,1.971-2.293
	v21.963h6.327V69.346c1.742-3.164,3.255-6.512,4.448-9.721L277.484,57.654z M325.167,57.516c-2.2,6.327-6.006,12.654-9.95,16.643
	c1.101,1.65,2.888,5.365,3.485,7.016c0.642-0.689,1.33-1.468,1.971-2.292v22.1h6.556V68.796c1.604-3.073,3.072-6.235,4.218-9.308
	L325.167,57.516z M353.41,72.326h5.594v-6.374h-5.594v-8.298h-6.511v8.299h-5.318v-8.208h-6.51v8.208h-4.585v6.374h4.585v7.932
	h-5.685v6.511h29.939v-6.511h-5.915V72.326z M346.899,80.258h-5.318v-7.931h5.318V80.258z M346.303,91.033
	c2.75,2.979,5.915,7.151,7.29,9.857l5.593-3.53c-1.604-2.614-4.677-6.419-7.566-9.262L346.303,91.033z M328.055,96.627
	c1.467,0.916,3.989,2.979,5.181,4.172c3.302-2.521,7.107-6.604,9.445-10.637l-6.235-1.972
	C334.611,91.353,331.356,94.609,328.055,96.627 M374.086,74.251c1.834,4.997,3.989,11.601,4.814,15.911l6.282-2.569
	c-1.054-4.31-3.21-10.544-5.227-15.589L374.086,74.251z M405.356,71.912l-7.153-2.337c-1.651,7.656-4.859,16.826-9.308,23.565
	h-16.46v6.282h34.295V93.14h-10.728C399.945,86.631,403.155,78.973,405.356,71.912 M373.811,68.75h32.509v-6.282h-14.581
	c-0.55-1.789-1.375-3.897-2.11-5.64l-6.739,1.513c0.458,1.239,1.008,2.706,1.421,4.127h-17.285v12.287
	c0,6.695-0.229,16.415-3.621,22.926c1.604,0.643,4.675,2.658,5.914,3.806c3.851-7.245,4.492-19.12,4.492-26.731V68.75z
	 M392.839,85.302c-0.779-4.31-2.429-10.547-4.036-15.589l-6.097,1.513c1.468,4.997,3.117,11.6,3.668,15.864L392.839,85.302z
	 M434.514,73.977c0.689,1.604,1.697,4.491,2.018,5.686c0.414-0.461,2.201-0.734,3.714-0.734h2.66v3.255h-7.979v5.776h7.979v5.227
	h6.189V87.96h5.502v-5.776h-5.502v-3.255h4.218v-5.412h-4.218v-4.493h-6.007l0.321-0.869H454V62.33h-8.757
	c0.366-1.33,0.641-2.659,0.918-3.989l-6.558-1.1c-0.139,1.697-0.413,3.439-0.688,5.089h-4.355v5.825h3.025
	c-0.366,1.329-0.687,2.337-0.917,2.841C436.028,72.646,435.386,73.702,434.514,73.977 M442.905,69.575v3.941h-1.606
	C441.851,72.28,442.401,70.95,442.905,69.575 M433.46,67.97c-0.458-2.705-1.467-6.693-2.429-9.857l-5.502,1.558
	c0.871,3.164,1.833,7.336,2.154,10.087L433.46,67.97z M436.257,92.499c-1.01-0.55-1.789-1.1-2.522-1.466V71.866h-8.297v6.007h2.337
	v13.939c-0.458,0.274-0.871,0.55-1.329,0.871c-0.642-1.147-1.422-3.44-1.789-4.953l-2.934,2.201v-4.63h4.125v-5.595h-4.125v-3.897
	h2.889v-5.547h-8.529c0.596-0.963,1.146-2.017,1.65-3.073h8.024v-5.685h-5.687c0.277-0.779,0.505-1.604,0.735-2.383l-5.456-1.559
	c-0.964,3.851-2.614,7.656-4.723,10.178c0.917,1.42,2.429,4.723,2.843,6.098c0.273-0.276,0.504-0.596,0.778-0.918v2.889h1.651v3.897
	h-3.714v5.595h3.714v6.144c0,2.567-1.237,4.355-2.293,5.228c0.964,0.87,2.523,3.024,3.072,4.218c0-0.092,0-0.184,0.046-0.276
	l0.046,0.276c0.687-0.964,1.925-2.064,7.564-6.421l-0.504,0.459l4.036,6.283c1.1-2.157,2.843-5.046,3.943-5.046
	c0.825,0,2.247,1.102,3.851,2.065c2.568,1.466,5.319,2.199,9.216,2.199c2.889,0,6.694-0.136,8.896-0.319
	c0.046-1.651,0.871-4.86,1.466-6.604c-3.024,0.46-7.655,0.734-10.315,0.734C441.483,94.241,438.549,93.875,436.257,92.499
	 M497.097,70.721h-13.158v-3.484h15.956v-6.19h-15.956v-3.575h-6.785v13.25h-12.702v16.872h32.645V70.721z M490.266,81.45h-19.439
	v-4.585h19.439V81.45z M458.768,97.771l6.19,3.027c2.338-2.521,4.539-6.558,5.73-10.317l-6.419-1.604
	C463.031,92.224,460.876,95.846,458.768,97.771 M490.586,90.619c2.108,3.165,4.586,7.429,5.503,10.134l6.464-2.476
	c-1.146-2.752-3.804-6.832-5.959-9.813L490.586,90.619z M471.881,90.804c0.55,3.254,0.917,7.473,0.917,9.994l6.739-0.826
	c-0.093-2.521-0.642-6.648-1.33-9.811L471.881,90.804z M481.278,90.849c1.285,3.071,2.66,7.152,3.118,9.627l6.511-1.65
	c-0.596-2.521-2.154-6.418-3.529-9.352L481.278,90.849z M513.831,77.781h29.206V67.465h-29.206V77.781L513.831,77.781z
	 M535.931,73.516h-15.452v-1.833h15.452V73.516z M549.41,60.542h-17.239c-0.368-1.146-0.963-2.567-1.604-3.623l-6.832,1.284
	c0.321,0.688,0.642,1.513,0.917,2.338h-17.377v5.41h42.136L549.41,60.542L549.41,60.542z M549.044,88.647V79.11h-41.403v9.629h6.282
	v-4.677h28.518v4.585C542.441,88.647,549.044,88.647,549.044,88.647z M542.441,94.47h-2.2c-0.963,0-1.146-0.137-1.146-1.558v-7.381
	h-21.457c-0.32,5.456-0.872,8.253-10.499,9.72c1.329,1.376,3.025,4.035,3.576,5.731c8.939-1.836,12.013-5.09,13.204-10.041h8.023
	v2.017c0,5.411,1.284,7.245,7.016,7.245h4.218c4.31,0,5.961-1.697,6.602-7.612c-1.833-0.412-4.676-1.466-6.006-2.475
	C543.587,93.784,543.404,94.47,542.441,94.47 M587.694,57.699h-7.199v13.802h-10.683v6.968h10.683v22.56h7.199v-22.56h9.995v-6.968
	h-9.995L587.694,57.699L587.694,57.699z M567.84,88.144V71.455h-13.158v6.603h6.325v12.378c0,2.109-1.465,3.76-2.657,4.54
	c1.101,1.423,2.704,4.493,3.21,6.236c0.962-1.239,2.842-2.752,12.471-9.813c-0.688-1.375-1.696-4.264-2.063-6.188L567.84,88.144z
	 M565.547,69.299l4.494-4.813c-1.696-1.972-5.411-4.815-7.978-6.741l-4.219,4.31C560.458,64.211,563.989,67.282,565.547,69.299
	 M622.859,86.355c-0.274,5.411-0.779,7.565-1.742,7.565c-1.192,0-2.339-1.513-3.348-4.08c3.302-3.898,6.099-8.345,8.254-13.159
	l-6.281-1.927c-1.102,2.614-2.477,5.137-4.127,7.475c-0.459-2.246-0.871-4.77-1.192-7.429l13.113-1.421l-0.597-6.281l-13.113,1.421
	c-0.228-3.621-0.32-7.335-0.228-11.003h-6.831c0,3.897,0.137,7.84,0.411,11.691l-5.456,0.597l0.596,6.326l5.456-0.596
	c0.551,4.723,1.376,9.169,2.522,12.976c-2.613,2.477-5.502,4.585-8.574,6.235c1.33,1.238,3.668,3.852,4.631,5.227
	c2.247-1.421,4.447-3.117,6.557-5.044c1.972,3.531,4.493,5.64,7.702,5.64c4.631,0,6.695-1.925,7.704-10.544
	C626.572,89.383,624.279,87.869,622.859,86.355 M634.918,62.284h-6.374v25.4h6.374V62.284z M637.255,93.554
	c0,0.779-0.275,1.01-1.1,1.01c-0.826,0-3.439,0-5.777-0.094c0.871,1.835,1.834,4.771,2.063,6.604c3.897,0,6.785-0.229,8.758-1.284
	c1.972-1.055,2.567-2.796,2.567-6.235V57.929h-6.511L637.255,93.554L637.255,93.554z M620.153,67.603l4.723-3.988
	c-1.329-1.835-4.219-4.402-6.465-6.144l-4.402,3.575C616.211,62.972,619.007,65.769,620.153,67.603 M650.778,81.308h29.586v-3.136
	h-29.586V81.308z M179.915,67.292c2.482,0,4.493-2.012,4.493-4.493c0-2.481-2.011-4.492-4.493-4.492
	c-2.48,0-4.492,2.011-4.492,4.492C175.423,65.28,177.435,67.292,179.915,67.292"/>
<linearGradient id="SVGID_2_" gradientUnits="userSpaceOnUse" x1="27.0452" y1="52.9607" x2="104.6258" y2="97.752">
	<stop  offset="0" style="stop-color:#FF26ED"/>
	<stop  offset="0.2618" style="stop-color:#A426FD"/>
	<stop  offset="0.6256" style="stop-color:#2B5CF2"/>
	<stop  offset="1" style="stop-color:#00BFFF"/>
</linearGradient>
<path style="fill:url(#SVGID_2_);" d="M32.932,114.321l6.999,6.998l9.823-9.822c-2.599-2.051-4.95-4.4-6.999-7L32.932,114.321z
	 M20.162,73.593v9.898h13.892c-0.191-1.623-0.293-3.274-0.293-4.949s0.102-3.325,0.293-4.949
	C34.054,73.593,20.162,73.593,20.162,73.593z M41.066,78.542c0,19.133,15.51,34.644,34.643,34.644
	c12.793,0,23.964-6.936,29.965-17.25l-8.558-4.979c-4.284,7.372-12.267,12.329-21.407,12.329c-13.666,0-24.744-11.078-24.744-24.744
	c0-13.665,11.078-24.743,24.744-24.743c9.165,0,17.165,4.982,21.441,12.386l8.579-4.944c-5.987-10.366-17.189-17.342-30.02-17.342
	C56.576,43.899,41.066,59.409,41.066,78.542 M32.932,42.764l9.823,9.823c2.049-2.599,4.4-4.949,6.999-6.999l-9.823-9.824
	L32.932,42.764z M70.76,22.995v13.892c1.624-0.191,3.274-0.292,4.949-0.292s3.326,0.101,4.949,0.292V22.995H70.76z"/>
</svg>
