<?xml version="1.0" encoding="iso-8859-1"?>
<!-- Generator: Adobe Illustrator 24.0.0, SVG Export Plug-In . SVG Version: 6.00 Build 0)  -->
<svg version="1.1" id="&#x56FE;&#x5C42;_1" xmlns="http://www.w3.org/2000/svg" xmlns:xlink="http://www.w3.org/1999/xlink" x="0px"
	 y="0px" viewBox="0 0 1237 264" style="enable-background:new 0 0 1237 264;" xml:space="preserve">
<g>
	<path style="fill:#1E1E4D;" d="M38.252,111.376v-7.93H95.4v7.93h-7.656v16.133h10.391v8.203H87.744v28.164H75.166v-28.164H59.033
		c0,13.125-7.293,22.602-21.875,28.438v-7.656c6.379-4.191,9.477-11.117,9.297-20.781H34.97v-8.203h11.484v-16.133H38.252z
		 M59.033,111.376v16.133h16.133v-16.133H59.033z"/>
	<path style="fill:#1E1E4D;" d="M116.488,162.509H105.55c3.645-9.477,5.648-18.594,6.016-27.344h9.297
		C120.316,144.829,118.855,153.942,116.488,162.509z M115.941,102.079c2.188,4.375,3.555,8.844,4.102,13.398h-10.117
		c-0.367-3.281-1.551-7.746-3.555-13.398H115.941z M117.034,118.485c1.457,3.102,2.734,7.477,3.828,13.125h-10.117
		c-0.914-5.102-2.098-9.477-3.555-13.125H117.034z M169.534,110.829h-36.641v31.172c0.547,10.027-3.922,17.406-13.398,22.148v-7.383
		c2.188-3.645,3.188-7.836,3.008-12.578v-41.289h47.031V110.829z M136.722,144.462h8.203c-0.184,8.387-4.648,13.945-13.398,16.68
		v-5.742C134.441,152.665,136.175,149.021,136.722,144.462z M154.222,111.649c-0.184,1.461-0.457,2.734-0.82,3.828h13.945v17.227
		c0.18,6.746-2.828,10.027-9.023,9.844h-1.914v12.031c0.18,6.195-2.918,9.203-9.297,9.023h-6.016v-6.836h1.914
		c2.188,0.184,3.188-0.91,3.008-3.281v-10.938h-11.211v-27.07h7.383c0.363-1.094,0.637-2.367,0.82-3.828H154.222z M157.503,122.587
		h-12.852v3.281h12.852V122.587z M154.495,135.439c2.188,0,3.188-1,3.008-3.008v-0.273h-12.852v3.281H154.495z M165.159,144.462
		c0.547,4.922,2.094,8.477,4.648,10.664v6.016c-8.387-2.734-12.578-8.293-12.578-16.68H165.159z"/>
	<path style="fill:#1E1E4D;" d="M177.77,113.017v-7.656h6.562c0.363-1.457,0.547-3.008,0.547-4.648h10.664
		c-0.184,1.641-0.547,3.191-1.094,4.648h10.938v7.656h-12.578c-0.184,0.547-0.367,1.367-0.547,2.461
		c-0.367,0.547-0.547,1.004-0.547,1.367h8.203v11.758h5.469v7.656h-5.469v6.562c2.004-0.363,4.102-0.637,6.289-0.82v7.109
		c-2.188,0.547-4.285,1.094-6.289,1.641v12.578h-10.117v-11.211c-3.465,0.367-7.566,0.547-12.305,0.547v-8.75
		c5.832,0,9.934-0.09,12.305-0.273v-7.383h-11.484v-7.656c2.004-5.102,3.555-10.297,4.648-15.586H177.77z M189.802,122.314
		c-0.367,1.094-1.094,2.645-2.188,4.648c-0.367,0.73-0.641,1.277-0.82,1.641h3.008V122.314z M222.341,146.923
		c-3.281,7.109-9.391,12.758-18.32,16.953v-7.656c8.566-7.836,12.578-18.867,12.031-33.086v-3.828h11.758v3.828
		c-0.547,13.855,3.734,24.703,12.852,32.539v7.93C230.997,159.044,224.891,153.485,222.341,146.923z M204.294,128.056v-7.93
		c3.645-4.555,5.559-10.938,5.742-19.141h11.211c-0.184,0.914-0.367,2.008-0.547,3.281c-0.184,0.73-0.273,1.277-0.273,1.641h19.688
		v17.773h-10.117v-10.117h-11.484C216.141,119.763,211.403,124.595,204.294,128.056z"/>
	<path style="fill:#1E1E4D;" d="M254.093,163.603v-36.914c-1.641,0.547-3.465,1.094-5.469,1.641v-6.836
		c4.922-3.098,8.383-9.934,10.391-20.508h11.484c-1.277,5.836-2.918,10.758-4.922,14.766v47.852H254.093z M312.882,134.892v8.203
		h-14.492v20.781h-12.031v-20.781h-18.594v-8.203h18.594v-16.133h-6.562c-2.188,4.375-6.473,7.75-12.852,10.117v-6.836
		c3.645-3.828,5.469-9.844,5.469-18.047h10.664c0,2.555-0.273,4.832-0.82,6.836h4.102v-10.117h12.031v10.117h12.852v7.93h-12.852
		v16.133H312.882z"/>
	<path style="fill:#1E1E4D;" d="M325.219,163.329v-36.641c-1.641,0.547-3.375,1.094-5.195,1.641v-6.836
		c4.738-3.281,8.02-10.117,9.844-20.508h11.211c-1.461,7.293-3.102,12.488-4.922,15.586v46.758H325.219z M384.008,142.001h-45.664
		v-7.656h7.93v-17.5h-6.562v-7.93h6.562v-8.203h10.938v8.203h7.656v-8.203h10.938v8.203h6.562v7.93h-6.562v17.5h8.203V142.001z
		 M339.438,163.876v-6.836c4.008-2.551,6.562-6.652,7.656-12.305h11.211C356.844,154.579,350.555,160.958,339.438,163.876z
		 M357.211,116.845v17.5h7.656v-17.5H357.211z M382.367,164.149c-10.938-3.281-17.137-9.75-18.594-19.414h11.211
		c0.91,5.652,3.371,9.754,7.383,12.305V164.149z"/>
	<path style="fill:#1E1E4D;" d="M416.58,120.399c3.098,8.387,5.469,17.227,7.109,26.523h-11.211
		c-0.914-7.473-2.371-14.855-4.375-22.148v4.648c0.547,17.137-4.832,28.711-16.133,34.727v-9.57
		c2.734-2.734,4.008-11.301,3.828-25.703v-22.969h23.516v-4.922h13.945v4.922h21.602v7.93h-46.758v6.562H416.58z M432.439,120.399
		c2.367,6.746,4.281,13.492,5.742,20.234c1.82-5.285,3.461-12.484,4.922-21.602h11.484c-2.734,14.219-6.656,25.797-11.758,34.727
		h12.031v7.656h-48.945v-7.656h27.344c0.547-1.094,1.273-2.914,2.188-5.469c0.18-0.547,0.363-1,0.547-1.367h-7.656
		c-1.094-7.656-3.008-16.496-5.742-26.523H432.439z"/>
	<path style="fill:#1E1E4D;" d="M462.55,112.743c3.281-2.551,5.012-6.469,5.195-11.758h9.844c-0.184,0.914-0.457,2.098-0.82,3.555
		c-0.184,0.73-0.273,1.277-0.273,1.641h6.836v7.383h-10.938c-2.188,2.555-5.469,4.195-9.844,4.922V112.743z M477.863,151.024
		c0.727-0.363,1.914-1.094,3.555-2.188v7.93c2.914-1.457,4.375-4.281,4.375-8.477v-21.328h-2.734v-6.836h12.852v27.344
		c0,5.289,2.367,7.93,7.109,7.93h24.336v7.109h-26.25c-5.105,0.18-8.57-1.188-10.391-4.102c-1.824,2.734-4.922,4.465-9.297,5.195
		v-6.836c-3.465,2.551-8.023,4.738-13.672,6.562v-21.875h-4.648v-7.383h4.648v-7.93h-3.828v-6.836h18.047v6.836h-4.102v7.93h4.922
		v7.383h-4.922V151.024z M491.808,101.806c2.188,4.559,3.555,9.023,4.102,13.398h-9.297c-0.914-4.922-2.098-9.387-3.555-13.398
		H491.808z M504.386,100.985h10.117c-0.547,1.824-1.004,3.738-1.367,5.742h12.852v7.383h-15.039c0,0.184-0.184,0.641-0.547,1.367
		c-0.184,0.547-0.367,1.004-0.547,1.367h8.477v8.477h6.836v7.383h-6.836v5.469h7.93v7.383h-7.93v8.203h-10.117v-8.203h-10.938
		v-7.383h10.938v-5.469H497.55v-7.383c2.004-4.555,3.371-8.293,4.102-11.211h-4.648v-7.383h6.289c0.18-0.727,0.363-1.73,0.547-3.008
		C504.202,102.446,504.386,101.532,504.386,100.985z M508.214,120.946c-0.184,0.547-0.641,1.461-1.367,2.734
		c-0.367,0.73-0.641,1.277-0.82,1.641h2.188V120.946z"/>
	<path style="fill:#1E1E4D;" d="M538.872,147.743h10.39c-1.641,5.469-2.555,10.391-2.734,14.766h-11.21
		C535.68,158.86,536.864,153.942,538.872,147.743z M540.785,145.282v-26.523h18.047v-18.047h12.305v4.922h25.977v7.656h-25.977
		v5.469h21.055v15.312c0.18,7.656-3.281,11.395-10.391,11.211H540.785z M580.434,126.689H552.27v10.664h24.609
		c2.367,0,3.555-1.367,3.555-4.102V126.689z M562.934,147.743c1.094,4.012,1.914,8.934,2.461,14.766h-11.211
		c-0.184-3.648-0.73-8.566-1.641-14.766H562.934z M578.246,147.743c2.004,6.199,3.188,11.117,3.555,14.766H570.59
		c-0.184-4.559-1.094-9.477-2.734-14.766H578.246z M593.559,147.743c2.188,5.289,3.461,10.207,3.828,14.766h-11.211
		c-0.184-4.559-1.188-9.477-3.008-14.766H593.559z"/>
	<path style="fill:#1E1E4D;" d="M605.897,111.376v-7.383h24.609v-3.008h14.219v3.008h24.609v7.383H605.897z M668.787,131.064v12.852
		h-11.211v-5.469h-39.922v5.469h-11.211v-12.852H668.787z M655.116,152.939c-0.184,1.641,0.547,2.371,2.188,2.188h0.547
		c1.641,0,2.461-0.82,2.461-2.461v-1.914h8.75v3.008c0,5.832-3.008,8.75-9.023,8.75h-7.656c-5.836,0.18-8.75-2.645-8.75-8.477
		v-5.742h-11.758c0.91,9.844-7.203,15.039-24.336,15.586v-6.836c9.297-0.363,13.578-3.734,12.852-10.117v-5.742h34.727V152.939z
		 M661.131,113.29v6.289c0.18,6.562-2.918,9.754-9.297,9.57h-37.461V113.29H661.131z M625.584,119.579v3.281h21.875
		c1.82,0.184,2.641-0.727,2.461-2.734v-0.547H625.584z"/>
	<path style="fill:#1E1E4D;" d="M694.524,148.017c1.641-0.547,3.918-1.73,6.836-3.555c0.91-0.547,1.547-0.91,1.914-1.094v9.57
		c-6.383,4.375-13.309,7.836-20.781,10.391v-35h-4.922v-7.93h16.953V148.017z M691.789,101.259c2.367,4.012,4.191,8.75,5.469,14.219
		h-11.211c-0.914-4.191-2.461-8.93-4.648-14.219H691.789z M741.282,119.853v8.203h-15.039v35.547h-12.578v-35.547h-14.766v-8.203
		h14.766v-19.141h12.578v19.141H741.282z"/>
	<path style="fill:#1E1E4D;" d="M748.698,122.314v-7.656h5.742c0-1.457,0-3.645,0-6.562c-0.184-3.281-0.273-5.742-0.273-7.383
		h11.484c0,4.922,0,9.57,0,13.945h18.047v7.656h-17.773c0.18,5.652,0.547,10.574,1.094,14.766c2.004-2.914,3.828-6.742,5.469-11.484
		h10.938c-3.828,10.391-8.66,17.957-14.492,22.695c1.457,4.922,3.555,7.477,6.289,7.656c2.004,0.184,2.914-1.184,2.734-4.102h7.93
		c0,7.656-3.375,11.484-10.117,11.484c-6.199,0.18-11.121-2.918-14.766-9.297c-1.824,1.094-4.922,2.461-9.297,4.102
		c-1.094,0.547-1.914,0.91-2.461,1.094v-7.656c3.281-2.004,6.195-3.828,8.75-5.469c-0.547-2.004-1.004-3.918-1.367-5.742
		c-0.73-4.922-1.367-10.938-1.914-18.047H748.698z M776.862,102.079c1.82,2.734,3.098,6.289,3.828,10.664h-10.117
		c-0.547-3.828-1.551-7.383-3.008-10.664H776.862z M785.885,150.204v-44.57h10.117v44.57H785.885z M799.557,100.985h10.938v53.594
		c0.18,5.469-2.734,8.203-8.75,8.203h-9.297v-7.109h4.648c1.641,0,2.461-0.82,2.461-2.461V100.985z"/>
	<path style="fill:#1E1E4D;" d="M853.115,131.941v3.12h-30.299v-3.12H853.115z"/>
	<linearGradient id="SVGID_1_" gradientUnits="userSpaceOnUse" x1="867.597" y1="132.4307" x2="1210.3813" y2="132.4307">
		<stop  offset="0" style="stop-color:#F2009F"/>
		<stop  offset="0.5" style="stop-color:#B500F0"/>
		<stop  offset="1" style="stop-color:#7733FF"/>
	</linearGradient>
	<path style="fill:url(#SVGID_1_);" d="M918.456,122.86h13.125c-4.012,3.648-8.023,6.836-12.031,9.57h11.758v6.016h-22.148
		c-0.367,0.184-1.094,0.457-2.188,0.82c-0.547,0.367-1.914,1.004-4.102,1.914h22.695v13.125c0.18,5.648-3.008,8.383-9.57,8.203
		H876.62v-13.672c-2.918,0.547-5.926,1.094-9.023,1.641v-6.289c8.203-1.641,16.039-3.555,23.516-5.742h-23.516v-6.016h21.602v-2.461
		h-15.859v-6.016h15.859v-2.188h-16.406v-19.141h53.047v9.844c0.18,6.383-3.191,9.48-10.117,9.297h-15.312v2.188h13.945v2.188
		C915.812,125.048,917.179,123.954,918.456,122.86z M914.902,108.095H883.73v1.914h31.172V108.095z M911.894,116.298
		c1.82,0,2.824-0.637,3.008-1.914H883.73v1.914H911.894z M914.081,146.649h-25.977v2.734h25.977V146.649z M910.8,157.04
		c2.188,0,3.281-0.727,3.281-2.188v-0.273h-25.977v2.461H910.8z M904.784,132.431c1.457-0.91,2.824-1.73,4.102-2.461h-8.477v2.461
		H904.784z M939.543,105.087h3.008v-4.375h10.117v4.375h7.383v-4.375h10.117v4.375h3.008v7.656h-3.008v28.164h3.281v7.656h-35
		v-7.656h4.102v-28.164h-3.008V105.087z M939.27,164.149v-6.562c3.281-1.273,5.285-3.828,6.016-7.656h9.844
		C953.668,157.587,948.383,162.325,939.27,164.149z M952.668,112.743v4.375h7.383v-4.375H952.668z M952.668,124.501v4.375h7.383
		v-4.375H952.668z M952.668,136.259v4.648h7.383v-4.648H952.668z M971.262,164.149c-8.023-2.371-12.672-7.109-13.945-14.219h9.844
		c0.363,3.465,1.73,5.836,4.102,7.109V164.149z M987.668,155.946c2.004,0.184,2.914-0.82,2.734-3.008v-10.664h-5.742
		c0.363,10.211-3.738,17.5-12.305,21.875v-7.656c1.641-3.098,2.367-8.02,2.188-14.766v-39.375h25.977v51.133
		c0.18,6.379-2.828,9.477-9.023,9.297h-5.742v-6.836H987.668z M990.403,109.735h-5.742v8.75h5.742V109.735z M984.66,125.868v9.023
		h5.742v-9.023H984.66z M1023.248,154.306h30.352v7.656h-43.477v-7.93c3.828-6.562,9.57-12.668,17.227-18.32
		c9.477-6.742,13.945-12.121,13.398-16.133c0-6.195-2.828-9.203-8.477-9.023c-5.836,0.184-9.207,4.012-10.117,11.484h-12.305
		c2.367-13.125,10.117-19.777,23.242-19.961c13.305,0.367,20.234,6.016,20.781,16.953c0.547,7.84-3.922,14.586-13.398,20.234
		C1032.088,144.189,1026.346,149.204,1023.248,154.306z M1106.68,132.704c0.18,20.418-7.477,30.531-22.969,30.352
		c-14.949-0.367-22.516-10.48-22.695-30.352c0.363-19.867,7.93-30.168,22.695-30.898
		C1098.84,101.989,1106.496,112.29,1106.68,132.704z M1093.281,132.978c0.18-15.492-2.918-23.059-9.297-22.695
		c-6.562-0.18-9.844,7.383-9.844,22.695c0,14.766,3.281,22.148,9.844,22.148C1090.18,155.126,1093.281,147.743,1093.281,132.978z
		 M1126.947,154.306h30.352v7.656h-43.477v-7.93c3.828-6.562,9.57-12.668,17.227-18.32c9.477-6.742,13.945-12.121,13.398-16.133
		c0-6.195-2.828-9.203-8.477-9.023c-5.836,0.184-9.207,4.012-10.117,11.484h-12.305c2.367-13.125,10.117-19.777,23.242-19.961
		c13.305,0.367,20.234,6.016,20.781,16.953c0.547,7.84-3.922,14.586-13.398,20.234
		C1135.786,144.189,1130.044,149.204,1126.947,154.306z M1210.378,132.704c0.18,20.418-7.477,30.531-22.969,30.352
		c-14.949-0.367-22.516-10.48-22.695-30.352c0.363-19.867,7.93-30.168,22.695-30.898
		C1202.538,101.989,1210.195,112.29,1210.378,132.704z M1196.98,132.978c0.18-15.492-2.918-23.059-9.297-22.695
		c-6.562-0.18-9.844,7.383-9.844,22.695c0,14.766,3.281,22.148,9.844,22.148C1193.878,155.126,1196.98,147.743,1196.98,132.978z"/>
</g>
</svg>
